<?xml version="1.0" encoding="utf-8"?>
<!-- Generator: Adobe Illustrator 26.0.1, SVG Export Plug-In . SVG Version: 6.00 Build 0)  -->
<svg version="1.1" id="Layer_1" xmlns="http://www.w3.org/2000/svg" xmlns:xlink="http://www.w3.org/1999/xlink" x="0px" y="0px"
	 viewBox="0 0 147 40" style="enable-background:new 0 0 147 40;" xml:space="preserve">
<style type="text/css">
	.st0{fill-rule:evenodd;clip-rule:evenodd;fill:#F58220;}
	.st1{fill-rule:evenodd;clip-rule:evenodd;fill:#154C99;}
	.st2{fill:#154C99;}
	.st3{fill-rule:evenodd;clip-rule:evenodd;}
	.st4{fill:#ED1C24;}
	.st5{fill:#FFFFFF;}
	.st6{font-family:'MicrosoftYaHei-Bold';}
	.st7{font-size:8.5461px;}
	.st8{letter-spacing:1;}
</style>
<g>
	<g>
		<g>
			<g>
				<path class="st0" d="M104.9,22.17c-1.46,0.32-3.02,0.5-4.62,0.5c-1.73,0-3.39-0.2-4.95-0.57l4.35-19.9h1.4L104.9,22.17z"/>
				<path class="st1" d="M110.93,27.61h2.57h1.57v1.35v1.04c0.04,0.08-0.39,1.5-2.11,1.39h-2.33c-1.16,0-2.11-0.89-2.11-1.99v-2.16
					c0-1.09,0.95-1.99,2.11-1.99h0.26h2.07h1.99l0.04,1.45h-4.14v0.02c-0.38,0.03-0.68,0.35-0.68,0.74v1.71
					c0,0.41,0.33,0.74,0.74,0.74h2.59v-0.96h-2.57V27.61z M102.59,26.53h2.8c0.28,0,0.51,0.22,0.51,0.48c0,0.26-0.23,0.48-0.51,0.48
					h-2.8V26.53z M102.59,28.9h2.8c0.28,0,0.51,0.22,0.51,0.48c0,0.27-0.23,0.48-0.51,0.48h-2.8V28.9z M100.89,25.18h4.98
					c1.69,0.18,1.9,1.39,1.45,3.07c0.46,1.54,0.2,2.57-1.1,2.87h-5.32V25.18z M94.98,26.47h2.8c0.28,0,0.51,0.22,0.51,0.48
					c0,0.27-0.23,0.48-0.51,0.48h-2.8V26.47z M93.32,25.08h4.39c2.8,0.09,2.18,2.24,2.07,3.06l0.12,2.87h-1.65v-1.77
					c-0.04-0.15-0.12-0.29-0.48-0.38h-2.79v2.15h-1.66V25.08z M86.85,25.01h5.15v1.33h-4.33c-0.27,0-0.5,0.22-0.5,0.5
					c0,0.27,0.22,0.5,0.5,0.5h3.27c2,0.03,1.95,3.69-0.15,3.69h-4.8v-1.35h4.22c0.27,0,0.5-0.22,0.5-0.5s-0.22-0.5-0.5-0.5h-3.44
					C84.91,28.42,85.25,25.12,86.85,25.01z M100.28,0c8.71,0,15.82,5.09,15.82,11.33c0,4.73-4.09,8.8-9.86,10.5l-5.06-19.64
					l7.93,12.12c0.4,0.24,0.43,0.2,0.83,0.09c1.49-1.43,2.38-3.21,2.38-5.13c0-4.74-5.39-8.61-12-8.61c-6.61,0-12,3.87-12,8.61
					c0,1.7,0.69,3.29,1.89,4.63c0.41,0.3,0.81,0.4,1.18,0.05l8.17-11.75l-5.55,19.54c-5.61-1.75-9.55-5.75-9.55-10.4
					C84.46,5.09,91.57,0,100.28,0z"/>
			</g>
			<path class="st2" d="M108.34,35.39h0.8c-0.21,0.82-0.54,1.56-1,2.2c0.23,0.21,0.42,0.42,0.57,0.63c0.08-0.11,0.19-0.31,0.34-0.57
				c0.1-0.15,0.16-0.27,0.2-0.34v2.58h0.83v-3.41c0.04,0.06,0.11,0.14,0.2,0.26c0.06,0.08,0.1,0.12,0.11,0.14
				c0.15-0.1,0.36-0.28,0.63-0.54c-0.08-0.1-0.23-0.28-0.46-0.54c-0.11-0.13-0.17-0.2-0.17-0.2c-0.04,0-0.14,0.08-0.32,0.23v-0.46
				h0.66v0.29h1.12c-0.31,0.57-0.84,1.09-1.6,1.55c0.32,0.27,0.54,0.46,0.63,0.57c0.23-0.13,0.43-0.29,0.6-0.46
				c0.06,0.99-0.24,1.73-0.89,2.21c0.34,0.21,0.6,0.37,0.77,0.49c0.63-0.52,0.98-1.31,1.06-2.38c0.02-0.17,0.04-0.3,0.06-0.37
				c0-0.02,0.01-0.06,0.03-0.11c0.08-0.15,0.02-0.23-0.17-0.23h-0.4c0.29-0.27,0.53-0.55,0.72-0.86c0.19,0.32,0.43,0.59,0.72,0.8
				h-0.4v3.06h0.92v-2.63c0.21,0.15,0.42,0.29,0.63,0.4c0.21-0.42,0.39-0.74,0.54-0.95c-0.73-0.29-1.27-0.65-1.63-1.09h1.35V34.9
				h-1.75c0.04-0.19,0.07-0.4,0.09-0.63c0.4-0.04,0.81-0.08,1.23-0.11c0.25-0.02,0.37-0.04,0.37-0.06c0.02-0.04-0.12-0.25-0.43-0.63
				c-0.11-0.13-0.18-0.22-0.2-0.26c-0.97,0.25-2.07,0.4-3.29,0.46c0.08,0.15,0.17,0.4,0.29,0.75c0.15,0,0.41-0.02,0.77-0.06
				c0.13-0.02,0.23-0.03,0.29-0.03c0,0.19-0.02,0.36-0.06,0.52c0.04-0.15,0.04-0.13,0,0.06h-1.32v-0.29h-0.69v-0.75
				c0-0.1,0.02-0.23,0.06-0.4c0.02-0.1,0.03-0.15,0.03-0.17c0-0.06-0.15-0.09-0.46-0.09h-0.46v1.4h-0.92V35.39z M105.79,38.8h-1.03
				v-0.97h1.03V38.8z M104.36,37.08c0.34-0.19,0.66-0.4,0.95-0.63c0.52,0.32,0.92,0.53,1.2,0.63H104.36z M103.5,35.56
				c0.15,0.08,0.31,0.19,0.46,0.34c0.1-0.1,0.22-0.27,0.37-0.52c0.04,0.08,0.15,0.25,0.34,0.52c-0.29,0.27-0.74,0.51-1.37,0.71
				c-0.08,0.02-0.13,0.04-0.17,0.06c0,0,0.01,0.02,0.03,0.06c0.06,0.02,0.1,0.05,0.11,0.09h-0.49v-0.8h0.72V35.56z M105.73,34.59
				c-0.08,0.29-0.21,0.55-0.4,0.8c-0.29-0.34-0.46-0.61-0.52-0.8H105.73z M101.81,34.33h0.83v1h-0.83V34.33z M105.1,33.87
				c0.06-0.15,0.12-0.3,0.2-0.43c0.04-0.08,0.05-0.12,0.03-0.14c-0.06-0.02-0.4-0.06-1.03-0.11c-0.21,0.94-0.48,1.6-0.8,2v-1.6
				h-2.52v2.43h1v2.46l-0.32,0.06v-1.69c0-0.15,0.01-0.27,0.03-0.34c0.02-0.06,0.03-0.1,0.03-0.11c0-0.02-0.02-0.03-0.06-0.03
				c-0.04,0-0.15,0-0.34,0h-0.43v2.32c-0.21,0.02-0.33,0.04-0.34,0.06c-0.02,0.06-0.01,0.16,0.03,0.32
				c0.02,0.06,0.04,0.13,0.06,0.23c0.04,0.15,0.08,0.28,0.11,0.37c0.02,0.04,0.07,0.04,0.14,0c0.92-0.33,1.85-0.59,2.8-0.8
				c-0.02-0.29-0.02-0.54,0-0.77c-0.29,0.08-0.59,0.14-0.92,0.2v-0.75h0.66v-0.43c0.11,0.13,0.19,0.25,0.23,0.34
				c0.11-0.06,0.19-0.11,0.23-0.14v2.58h0.86v-0.43h1.03v0.43h0.89v-2.72c0.19,0.1,0.31,0.14,0.34,0.14c0.06-0.34,0.19-0.68,0.4-1
				c-0.59-0.13-1.07-0.3-1.43-0.49c0.46-0.52,0.76-1.16,0.92-1.95H105.1z M95.9,39.28h0.94v-5.01c0-0.17,0.02-0.33,0.06-0.46
				c0-0.02,0-0.04,0-0.06c0.02-0.06-0.08-0.09-0.29-0.09H95.9V39.28z M93.93,36.65c-0.02,1.14-0.4,1.99-1.14,2.52
				c0.36,0.11,0.67,0.27,0.92,0.46c0.84-0.84,1.23-1.99,1.17-3.47v-2.09c0-0.15,0.02-0.29,0.06-0.4c0-0.06,0-0.1,0-0.11
				c0-0.04-0.11-0.06-0.34-0.06h-0.66V36.65z M97.88,39.77h0.97V33.9c0-0.15,0.01-0.28,0.03-0.37c0.02-0.04,0.03-0.07,0.03-0.09
				c0-0.04-0.13-0.06-0.4-0.06h-0.63V39.77z M87.19,34.59c0,0.13,0,0.31,0,0.52c0.1,1.28-0.14,2.06-0.72,2.35
				c0.08,0.06,0.21,0.19,0.4,0.4c0.17,0.15,0.26,0.23,0.26,0.23c0.8-0.46,1.13-1.39,0.97-2.81c0-0.29,0-0.52,0-0.69h0.49v2.49
				c-0.04,0.5,0.19,0.73,0.69,0.69h1.12v0.54h-4.01v-3.72H87.19z M89.77,36.97c-0.17,0-0.26-0.07-0.26-0.2v-2.18h0.89v2.38H89.77z
				 M85.5,39.54h0.89v-0.43h4.01v0.4h0.94v-5.73H85.5V39.54z"/>
		</g>
		<rect x="73.39" y="0.82" class="st3" width="0.96" height="38.36"/>
		<g>
			<g>
				<rect x="45.24" class="st4" width="9.22" height="2.55"/>
				<polygon class="st4" points="38.55,3.83 38.55,2.52 43.73,2.52 43.73,0 38.55,0 36,0 36,2.52 36,3.83 36,6.35 38.55,6.35 
					52.52,6.35 52.52,14.99 45.2,14.99 45.2,17.51 52.52,17.51 54.35,17.51 54.46,17.51 54.46,6.35 54.46,3.83 52.52,3.83 				"/>
				<polygon class="st4" points="36,7.71 36,10.23 36,11.1 36,13.62 38.55,13.62 41.18,13.62 41.18,14.99 36,14.99 36,17.51 
					41.18,17.51 43.73,17.51 43.73,14.99 43.73,13.62 43.73,11.6 43.73,11.1 38.55,11.1 38.55,10.23 43.73,10.23 43.73,7.71 
					38.55,7.71 				"/>
				<polygon class="st4" points="45.2,11.54 45.2,13.62 49.02,13.62 51.1,13.62 51.1,11.54 51.1,9.79 51.1,7.71 49.02,7.71 
					45.2,7.71 45.2,9.79 49.02,9.79 49.02,11.54 				"/>
			</g>
			<g>
				<g>
					<g>
						<path class="st5" d="M26.72,40v-1.08h4.73c0.76,0,1.26-0.04,1.52-0.13c0.36-0.13,0.55-0.32,0.55-0.57
							c0-0.29-0.21-0.51-0.64-0.64c-0.24-0.08-0.63-0.12-1.16-0.12h-1.92c-1.17,0-2.02-0.12-2.53-0.37
							c-0.32-0.16-0.58-0.35-0.76-0.59c-0.18-0.24-0.27-0.49-0.27-0.76c0-0.43,0.21-0.81,0.64-1.16c0.41-0.34,1.08-0.54,2-0.59
							c0.31-0.02,0.77-0.03,1.38-0.03h5.14v1.08h-4.64c-0.69,0-1.15,0.02-1.38,0.05c-0.47,0.07-0.7,0.27-0.7,0.62
							c0,0.29,0.19,0.48,0.58,0.58c0.26,0.07,0.7,0.1,1.31,0.1h1.66c0.85,0,1.48,0.04,1.9,0.13c0.73,0.14,1.24,0.4,1.51,0.76
							c0.22,0.29,0.33,0.61,0.33,0.94c0,0.37-0.14,0.7-0.43,0.99c-0.4,0.41-1.01,0.66-1.83,0.74C33.3,39.98,32.71,40,31.92,40H26.72
							z"/>
						<path class="st5" d="M38.33,33.96h4.39c1.1,0,1.95,0.06,2.55,0.19c1.11,0.23,1.85,0.66,2.22,1.29c0.28,0.48,0.42,1,0.42,1.55
							c0,0.55-0.13,1.06-0.4,1.55c-0.27,0.5-0.72,0.86-1.34,1.09c-0.39,0.15-0.83,0.25-1.29,0.3C44.41,39.97,43.69,40,42.73,40
							h-4.39V33.96z M40.53,35.03v3.89h2.19c0.96,0,1.63-0.13,2-0.38c0.23-0.15,0.41-0.37,0.55-0.66c0.14-0.28,0.21-0.59,0.21-0.91
							c0-0.35-0.08-0.68-0.25-0.98c-0.16-0.3-0.38-0.52-0.66-0.66c-0.39-0.2-1.01-0.31-1.86-0.31H40.53z"/>
						<path class="st5" d="M50.25,40v-6.04h2.2V40H50.25z"/>
						<path class="st5" d="M59.14,36.41h5.09V40H59.6c-0.8,0-1.44-0.03-1.91-0.1c-0.47-0.07-0.89-0.19-1.28-0.37
							c-1.09-0.49-1.63-1.33-1.63-2.53c0-0.79,0.26-1.44,0.77-1.95c0.38-0.38,0.91-0.66,1.57-0.83c0.66-0.17,1.52-0.26,2.58-0.26
							h4.52v1.08h-4.27c-0.92,0-1.59,0.12-2.01,0.35c-0.49,0.28-0.74,0.77-0.74,1.49c0,0.37,0.06,0.7,0.19,1s0.3,0.52,0.53,0.66
							c0.2,0.13,0.48,0.23,0.82,0.29c0.34,0.06,0.77,0.09,1.28,0.09h2v-1.44h-2.89V36.41z"/>
					</g>
				</g>
				<text transform="matrix(1 0 0 1 26.3213 30.2656)"><tspan x="0" y="0" class="st5 st6 st7 st8">蜀道集</tspan><tspan x="29.74" y="0" class="st5 st6 st7">团</tspan></text>
			</g>
		</g>
	</g>
</g>
</svg>
